<svg width="228" height="25" viewBox="0 0 228 25" fill="none" xmlns="http://www.w3.org/2000/svg">
<path d="M214.437 23.1724V0H228.009V2.64828H217.35V9.99724H225.99V12.5793H217.35V20.5241H228.009V23.1724H214.437Z" fill="#012169"/>
<path d="M197.234 23.1724V2.64828H190.944V0H206.437V2.64828H200.147V23.1724H197.234Z" fill="#012169"/>
<path d="M165.631 23.1724V0H169.868L180.031 19.0014V0H182.944V23.1724H179.137L168.544 4.03862V23.1724H165.631Z" fill="#012169"/>
<path d="M113.898 23.1724V2.64828H107.608V0H123.101V2.64828H116.811V23.1724H113.898Z" fill="#012169"/>
<path d="M82.7587 23.1724V0H91.1338C92.5242 0 93.6718 0.209655 94.5766 0.628965C95.5035 1.02621 96.2428 1.55586 96.7945 2.21793C97.3463 2.88 97.7325 3.60828 97.9532 4.40276C98.1959 5.17517 98.3173 5.93655 98.3173 6.6869C98.3173 7.9669 97.9421 9.20276 97.1918 10.3945C96.4414 11.5862 95.2828 12.469 93.7159 13.0428L99.6083 23.1724H96.1656L90.7366 13.5062H85.738V23.1724H82.7587ZM85.6718 10.8579H91.1338C92.3476 10.8579 93.3518 10.4607 94.1463 9.66621C94.9407 8.84966 95.338 7.85655 95.338 6.6869C95.338 5.98069 95.1614 5.32966 94.8083 4.73379C94.4552 4.11586 93.9587 3.61931 93.3187 3.24414C92.7007 2.8469 91.9835 2.64828 91.1669 2.64828H85.6718V10.8579Z" fill="#012169"/>
<path d="M55.4594 23.1724L63.7021 0H66.5159L74.7587 23.1724H71.978L69.6938 16.7172H60.5242L58.24 23.1724H55.4594ZM61.4842 14.069H68.7338L65.1256 3.8731L61.4842 14.069Z" fill="#012169"/>
<path d="M25.0152 23.1724V0H29.0538L36.2373 17.7434L43.4207 0H47.4593V23.1724H44.5462V4.56828L37.8924 21.12H34.7476L27.9283 4.56828V23.1724H25.0152Z" fill="#012169"/>
<path d="M8.80552 23.9669C6.88552 23.9669 5.29655 23.6138 4.03862 22.9076C2.80276 22.1793 1.85379 21.2414 1.19172 20.0938C0.551724 18.9462 0.154483 17.7434 0 16.4855H3.21103C3.45379 17.8979 4.06069 19.0455 5.03172 19.9283C6.00276 20.811 7.26069 21.2745 8.80552 21.3186C9.77655 21.3186 10.6593 21.1641 11.4538 20.8552C12.2703 20.5241 12.9214 20.0717 13.4069 19.4979C13.8924 18.9021 14.1241 18.2069 14.1021 17.4124C14.1021 16.5076 13.8593 15.8014 13.3738 15.2938C12.8883 14.7862 12.2483 14.389 11.4538 14.1021C10.6814 13.8152 9.82069 13.5724 8.87172 13.3738C7.92276 13.1531 6.97379 12.9103 6.02483 12.6455C5.07586 12.3807 4.20414 12.0166 3.40966 11.5531C2.63724 11.0897 2.00828 10.4607 1.52276 9.66621C1.03724 8.84966 0.794483 7.79034 0.794483 6.48827C0.794483 5.36276 1.07034 4.30345 1.62207 3.31034C2.19586 2.31724 3.06759 1.52276 4.23724 0.926896C5.4069 0.308965 6.89655 0 8.70621 0C9.96414 0 11.0786 0.198621 12.0497 0.595862C13.0428 0.993102 13.8814 1.52276 14.5655 2.18483C15.2717 2.82483 15.8014 3.53103 16.1545 4.30345C16.5297 5.07586 16.7393 5.83724 16.7834 6.58759H13.7048C13.5945 5.92552 13.3407 5.29655 12.9434 4.70069C12.5462 4.10483 11.9724 3.61931 11.2221 3.24414C10.4938 2.8469 9.57793 2.64828 8.47448 2.64828C7.65793 2.64828 6.88552 2.79172 6.15724 3.07862C5.42897 3.36552 4.8331 3.78483 4.36965 4.33655C3.92827 4.88828 3.70759 5.55034 3.70759 6.32276C3.70759 7.20552 3.95034 7.90069 4.43586 8.40827C4.92138 8.91586 5.55034 9.3131 6.32276 9.6C7.11724 9.8869 7.98896 10.1407 8.93793 10.3614C9.8869 10.5821 10.8359 10.8248 11.7848 11.0897C12.7338 11.3545 13.5945 11.7186 14.3669 12.1821C15.1614 12.6455 15.8014 13.2745 16.2869 14.069C16.7724 14.8414 17.0152 15.8566 17.0152 17.1145C17.0152 18.6152 16.6621 19.8841 15.9559 20.9214C15.2497 21.9366 14.2786 22.6979 13.0428 23.2055C11.829 23.7131 10.4166 23.9669 8.80552 23.9669Z" fill="#012169"/>
<path fill-rule="evenodd" clip-rule="evenodd" d="M143.452 0L138.909 6.46727L131.101 11.9642L138.909 17.8911L143.452 24.2258V14.8395C142.557 14.5385 141.913 13.6927 141.913 12.6964C141.913 11.7001 142.557 10.8543 143.452 10.5532V0ZM145.28 14.6683C145.969 14.2809 146.434 13.543 146.434 12.6964C146.434 11.8497 145.969 11.1118 145.28 10.7244V0.0634285L149.876 6.92422L157.631 11.9642L149.876 16.5202L145.28 24.0105V14.6683Z" fill="#012169"/>
</svg>
